<svg width="68" height="92" viewBox="0 0 68 92" xmlns="http://www.w3.org/2000/svg"><path d="M63.846 34.065c0 .983-.797 1.782-1.782 1.782h-2.006v2.228H7.939v-2.228H5.933a1.786 1.786 0 0 1-1.786-1.782c0-.984.801-1.783 1.786-1.783V22.038h2.226v8.016c0 .984.797 1.785 1.778 1.785.984 0 1.785-.801 1.785-1.785v-8.016h4.453v8.016a1.781 1.781 0 1 0 3.563 0v-8.016h4.46v8.016a1.781 1.781 0 1 0 3.563 0v-8.016h4.453v8.016c0 .984.801 1.785 1.782 1.785.984 0 1.782-.801 1.782-1.785v-8.016h4.456v8.016c0 .984.797 1.785 1.782 1.785s1.782-.801 1.782-1.785v-8.016h4.456v8.016c0 .984.797 1.785 1.782 1.785s1.782-.801 1.782-1.785v-8.016h4.456v8.016c0 .984.797 1.785 1.782 1.785.983 0 1.782-.801 1.782-1.785v-8.016h2.226v10.244c.985 0 1.782.799 1.782 1.783zM1.922 20.7h64.15a1.78 1.78 0 1 0 0-3.564V1H64.29v13.91a2.227 2.227 0 0 1-4.452 0V1h-3.564v13.91a2.228 2.228 0 1 1-4.456 0V1h-3.563v13.91a2.23 2.23 0 0 1-4.456 0V1h-3.563v13.91a2.228 2.228 0 0 1-4.456 0V1h-3.563v13.91a2.23 2.23 0 0 1-2.226 2.226 2.225 2.225 0 0 1-2.226-2.226V1h-3.563v13.91a2.23 2.23 0 0 1-4.46 0V1h-3.563v13.91a2.227 2.227 0 0 1-4.452 0V1H8.163v13.91a2.23 2.23 0 0 1-2.226 2.226 2.225 2.225 0 0 1-2.226-2.226V1H1.925v16.137a1.782 1.782 0 0 0-.003 3.563zm56.134 21.201a2.303 2.303 0 0 1-2.303 2.302h-.165c-.97 8.189-6.302 14.998-13.549 17.946 2.252-2.135 7.74-8.323 7.74-17.981a.47.47 0 0 0-.94 0c0 11.603-8.24 18.009-8.323 18.073a.472.472 0 0 0-.09.659c.118.152.303.178.478.138v3.025h-2.685c0 .426-.342.77-.771.77v8.826a.767.767 0 1 1 0 1.534h-1.719v9.59h-.962v3.453a.768.768 0 0 1-.77.764.765.765 0 0 1-.768-.764v-3.453h-.962v-9.59h-1.719a.77.77 0 0 1-.772-.77.77.77 0 0 1 .772-.764v-8.826a.77.77 0 0 1-.772-.77h-2.685v-3.448h.106c-7.876-2.645-13.762-9.763-14.79-18.412h-.162a2.305 2.305 0 0 1-2.307-2.302 2.306 2.306 0 0 1 2.307-2.303h43.508a2.304 2.304 0 0 1 2.303 2.303zM34.704 68.306a.705.705 0 0 0-1.41 0v4.702a.705.705 0 0 0 1.41 0v-4.702zm3.79-24.138a.47.47 0 0 0-.94 0c0 11.809-.97 18.312-.979 18.377a.47.47 0 0 0 .393.535c.298.042.498-.138.536-.394.009-.065.99-6.629.99-18.518zm5.642 0a.47.47 0 0 0-.94 0c0 11.676-4.609 18.106-4.655 18.169a.471.471 0 0 0 .101.658.471.471 0 0 0 .656-.101c.198-.269 4.838-6.719 4.838-18.726z" fill="#002868" fill-rule="evenodd"/></svg>