<svg xmlns="http://www.w3.org/2000/svg" xmlns:xlink="http://www.w3.org/1999/xlink" version="1.1" x="0px" y="0px" viewBox="0 0 100 100" width="50px" height="50px" enable-background="new 0 0 100 100" xml:space="preserve"><path fill="#002868" d="M16.961,32.824c1.174,1.174,4.695,9.39,8.216,11.737c3.521,2.348,9.39,2.348,9.39,2.348s0,2.347,1.173,4.695  c1.174,2.348,1.174,3.521,5.869,7.043c4.695,3.521,5.868,9.39,7.042,12.91c1.173,3.521-1.174,4.694-2.347,4.694  c-3.711,0-3.521,1.175-3.521,1.175s4.695,1.173,3.521,4.694c-1.174,3.521,1.173,8.216-0.587,12.91c-0.412,1.1,0,4.695,0,4.695  l14.36-14.085l35.132-34.857L69.821,25.433L44.396,0.082L14.614,30.477L16.961,32.824z"/><!-- <text x="0" y="115" fill="#000000" font-size="5px" font-weight="bold" font-family="'Helvetica Neue', Helvetica, Arial-Unicode, Arial, Sans-serif">Created by Tom VanAntwerp</text><text x="0" y="120" fill="#000000" font-size="5px" font-weight="bold" font-family="'Helvetica Neue', Helvetica, Arial-Unicode, Arial, Sans-serif">from the Noun Project</text> --></svg>