<svg xmlns="http://www.w3.org/2000/svg" viewBox="0 0 100 100" width="50" height="50"><path fill="#002868" d="M16.961 32.824c1.174 1.174 4.695 9.39 8.216 11.737 3.521 2.348 9.39 2.348 9.39 2.348s0 2.347 1.173 4.695c1.174 2.348 1.174 3.521 5.869 7.043 4.695 3.521 5.868 9.39 7.042 12.91 1.173 3.521-1.174 4.694-2.347 4.694-3.711 0-3.521 1.175-3.521 1.175s4.695 1.173 3.521 4.694c-1.174 3.521 1.173 8.216-.587 12.91-.412 1.1 0 4.695 0 4.695l14.36-14.085 35.132-34.857-25.388-25.35L44.396.082 14.614 30.477l2.347 2.347z"/></svg>