<svg xmlns="http://www.w3.org/2000/svg" xmlns:xlink="http://www.w3.org/1999/xlink" version="1.1" x="0px" y="0px" viewBox="0 0 100 100" enable-background="new 0 0 100 100"  xml:space="preserve"><g><g><path fill="#004B6A" d="M31.902,19.89c1.098,0,2.067-0.41,2.732-1.15c0.705-0.789,0.994-1.864,0.813-3.029c-0.176-1.159-0.801-2.266-1.758-3.118    c-0.995-0.891-2.264-1.404-3.48-1.404c-1.098,0-2.067,0.41-2.732,1.152c-1.452,1.623-1.028,4.381,0.944,6.145    C29.417,19.377,30.688,19.89,31.902,19.89z M28.652,12.851l0.644,0.573l0.047-0.043c0.413-0.426,0.892-0.692,1.194-0.8    l0.542,0.789c-0.303,0.108-0.797,0.344-1.202,0.792c-0.172,0.193-0.279,0.397-0.31,0.584c-0.029,0.203,0.034,0.377,0.181,0.508    c0.274,0.247,0.615,0.215,1.28-0.153c1.008-0.55,1.641-0.558,2.201-0.058c0.595,0.533,0.679,1.312,0.219,2.085l-0.025,0.045    l0.633,0.568l-0.474,0.533l-0.595-0.533l-0.046,0.047c-0.386,0.402-0.728,0.589-0.992,0.704l-0.517-0.765    c0.242-0.097,0.635-0.276,1.016-0.702c0.184-0.204,0.277-0.4,0.284-0.584c0.001-0.156-0.061-0.303-0.18-0.41    c-0.089-0.076-0.191-0.113-0.322-0.113c-0.22,0-0.519,0.107-1.026,0.368c-0.947,0.5-1.54,0.487-2.154-0.062    c-0.622-0.553-0.704-1.388-0.215-2.169l0.029-0.048l-0.689-0.616L28.652,12.851z"/><polygon points="33.764,6.53 35.971,8.501 36.581,7.818 33.69,5.238 29.931,9.445 30.613,10.057   "/><polygon points="36.54,15.359 37.223,15.969 40.988,11.762 38.101,9.18 37.492,9.861 39.693,11.833   "/><rect x="32.845" y="9.904" transform="matrix(-0.745 -0.6671 0.6671 -0.745 54.6389 41.6134)" width="4.857" height="0.917"/></g><path d="M43.543,11.531l-9.957-8.903L20.506,17.25l-0.668-0.597L33.471,1.41l9.255,8.275l0.628-0.703l-9.957-8.905l-4.747,5.305   l-8.749-3.019l-6.323,18.318H6.424v3.11h7.025L13.444,50.4h22.971l0.001-26.608h7.017v-3.11h-8.076L43.543,11.531z M33.66,3.958   l8.551,7.649l-8.117,9.076h-6.292l-2.786-2.49l-0.608,0.681l2.021,1.809h-2.09l-1.794-1.604l3.153-3.526l-0.683-0.61l-3.764,4.209   l1.714,1.531h-1.399l-1.591-1.423L33.66,3.958z M25.574,8.826l-3.336-1.151l-1.616,4.51l0.867,0.298l1.315-3.645l2.109,0.726   l-6.405,7.163l1.37,1.226l-1.233,1.378l1.509,1.351h-0.368l-1.762-0.608l-0.209,0.608h-1.162l5.019-14.536l4.814,1.662   L25.574,8.826z M14.577,20.683l5.908-17.12l7.487,2.583l-0.808,0.901l-6.076-2.099l-5.43,15.734H14.577z M18.599,48.083h-2.837   V37.606h2.837V48.083z M23.754,48.083h-2.838V37.606h2.838V48.083z M23.595,31.177l-4.989,0.007l4.008-2.976l-1.545-4.748   l4.065,2.896l4.037-2.938l-1.498,4.764l4.039,2.929l-4.991,0.047l-1.535,4.751L23.595,31.177z M28.932,48.083H26.07V37.606h2.861   V48.083z M34.098,48.083h-2.849V37.606h2.849V48.083z"/></g><!-- <text x="0" y="65.4" fill="#000000" font-size="5px" font-weight="bold" font-family="'Helvetica Neue', Helvetica, Arial-Unicode, Arial, Sans-serif">Created by Luis Prado</text><text x="0" y="70.4" fill="#000000" font-size="5px" font-weight="bold" font-family="'Helvetica Neue', Helvetica, Arial-Unicode, Arial, Sans-serif">from the Noun Project</text> --></svg>