<svg xmlns="http://www.w3.org/2000/svg" viewBox="0 0 100 100"><path fill="#004B6A" d="M31.902 19.89c1.098 0 2.067-.41 2.732-1.15.705-.789.994-1.864.813-3.029-.176-1.159-.801-2.266-1.758-3.118-.995-.891-2.264-1.404-3.48-1.404-1.098 0-2.067.41-2.732 1.152-1.452 1.623-1.028 4.381.944 6.145.996.891 2.267 1.404 3.481 1.404zm-3.25-7.039l.644.573.047-.043a3.374 3.374 0 0 1 1.194-.8l.542.789a3.016 3.016 0 0 0-1.202.792c-.172.193-.279.397-.31.584a.546.546 0 0 0 .181.508c.274.247.615.215 1.28-.153 1.008-.55 1.641-.558 2.201-.058.595.533.679 1.312.219 2.085l-.025.045.633.568-.474.533-.595-.533-.046.047a2.97 2.97 0 0 1-.992.704l-.517-.765a2.602 2.602 0 0 0 1.016-.702c.184-.204.277-.4.284-.584a.54.54 0 0 0-.18-.41.469.469 0 0 0-.322-.113c-.22 0-.519.107-1.026.368-.947.5-1.54.487-2.154-.062-.622-.553-.704-1.388-.215-2.169l.029-.048-.689-.616.477-.54z"/><path d="M33.764 6.53l2.207 1.971.61-.683-2.891-2.58-3.759 4.207.682.612zm2.776 8.829l.683.61 3.765-4.207-2.887-2.582-.609.681 2.201 1.972z"/><path d="M36.776 12.324l-3.618-3.24.612-.683 3.618 3.24z"/><path d="M43.543 11.531l-9.957-8.903-13.08 14.622-.668-.597L33.471 1.41l9.255 8.275.628-.703L33.397.077 28.65 5.382l-8.749-3.019-6.323 18.318H6.424v3.11h7.025L13.444 50.4h22.971l.001-26.608h7.017v-3.11h-8.076l8.186-9.151zM33.66 3.958l8.551 7.649-8.117 9.076h-6.292l-2.786-2.49-.608.681 2.021 1.809h-2.09l-1.794-1.604 3.153-3.526-.683-.61-3.764 4.209 1.714 1.531h-1.399l-1.591-1.423L33.66 3.958zm-8.086 4.868l-3.336-1.151-1.616 4.51.867.298 1.315-3.645 2.109.726-6.405 7.163 1.37 1.226-1.233 1.378 1.509 1.351h-.368l-1.762-.608-.209.608h-1.162l5.019-14.536 4.814 1.662-.912 1.018zM14.577 20.683l5.908-17.12 7.487 2.583-.808.901-6.076-2.099-5.43 15.734h-1.081zm4.022 27.4h-2.837V37.606h2.837v10.477zm5.155 0h-2.838V37.606h2.838v10.477zm-.159-16.906l-4.989.007 4.008-2.976-1.545-4.748 4.065 2.896 4.037-2.938-1.498 4.764 4.039 2.929-4.991.047-1.535 4.751-1.591-4.732zm5.337 16.906H26.07V37.606h2.861v10.477zm5.166 0h-2.849V37.606h2.849v10.477z"/></svg>