<?xml version="1.0" encoding="UTF-8" standalone="no"?>
<svg width="68px" height="92px" viewBox="0 0 68 92" version="1.1" xmlns="http://www.w3.org/2000/svg" xmlns:xlink="http://www.w3.org/1999/xlink">
    <!-- Generator: Sketch 39.1 (31720) - http://www.bohemiancoding.com/sketch -->
<!--     <title>capitol</title>
    <desc>Created with Sketch.</desc> -->
    <defs></defs>
    <g id="Page-1" stroke="none" stroke-width="1" fill="none" fill-rule="evenodd">
        <path d="M4.151,57.935 C4.151,56.952 4.948,56.153 5.933,56.153 L7.939,56.153 L7.939,53.925 L60.058,53.925 L60.058,56.153 L62.064,56.153 C63.049,56.153 63.85,56.952 63.85,57.935 C63.85,58.919 63.049,59.718 62.064,59.718 L62.064,69.962 L59.838,69.962 L59.838,61.946 C59.838,60.962 59.041,60.161 58.06,60.161 C57.076,60.161 56.275,60.962 56.275,61.946 L56.275,69.962 L51.822,69.962 L51.822,61.946 C51.822,60.962 51.021,60.161 50.037,60.161 C49.053,60.161 48.259,60.962 48.259,61.946 L48.259,69.962 L43.799,69.962 L43.799,61.946 C43.799,60.962 43.005,60.161 42.021,60.161 C41.037,60.161 40.236,60.962 40.236,61.946 L40.236,69.962 L35.783,69.962 L35.783,61.946 C35.783,60.962 34.982,60.161 34.001,60.161 C33.017,60.161 32.219,60.962 32.219,61.946 L32.219,69.962 L27.763,69.962 L27.763,61.946 C27.763,60.962 26.966,60.161 25.981,60.161 C24.996,60.161 24.199,60.962 24.199,61.946 L24.199,69.962 L19.743,69.962 L19.743,61.946 C19.743,60.962 18.946,60.161 17.961,60.161 C16.976,60.161 16.179,60.962 16.179,61.946 L16.179,69.962 L11.723,69.962 L11.723,61.946 C11.723,60.962 10.926,60.161 9.941,60.161 C8.958,60.161 8.159,60.962 8.159,61.946 L8.159,69.962 L5.933,69.962 L5.933,59.718 C4.948,59.718 4.151,58.919 4.151,57.935 L4.151,57.935 Z M66.075,71.3 L1.925,71.3 C0.941,71.3 0.143,72.101 0.143,73.082 C0.143,74.067 0.94,74.864 1.925,74.864 L1.925,91 L3.707,91 L3.707,77.09 C3.707,75.863 4.703,74.864 5.933,74.864 C7.164,74.864 8.159,75.863 8.159,77.09 L8.159,91 L11.723,91 L11.723,77.09 C11.723,75.863 12.722,74.864 13.953,74.864 C15.182,74.864 16.179,75.863 16.179,77.09 L16.179,91 L19.742,91 L19.742,77.09 C19.742,75.863 20.741,74.864 21.968,74.864 C23.199,74.864 24.198,75.863 24.198,77.09 L24.198,91 L27.761,91 L27.761,77.09 C27.761,75.863 28.757,74.864 29.991,74.864 C31.218,74.864 32.217,75.863 32.217,77.09 L32.217,91 L35.78,91 L35.78,77.09 C35.78,75.863 36.779,74.864 38.006,74.864 C39.24,74.864 40.232,75.863 40.232,77.09 L40.232,91 L43.795,91 L43.795,77.09 C43.795,75.863 44.794,74.864 46.025,74.864 C47.256,74.864 48.255,75.863 48.255,77.09 L48.255,91 L51.818,91 L51.818,77.09 C51.818,75.863 52.814,74.864 54.044,74.864 C55.271,74.864 56.27,75.863 56.27,77.09 L56.27,91 L59.834,91 L59.834,77.09 C59.834,75.863 60.833,74.864 62.06,74.864 C63.294,74.864 64.286,75.863 64.286,77.09 L64.286,91 L66.072,91 L66.072,74.863 C67.056,74.863 67.854,74.066 67.854,73.081 C67.857,72.101 67.06,71.3 66.075,71.3 L66.075,71.3 Z M9.941,50.099 C9.941,48.826 10.975,47.797 12.244,47.797 L12.409,47.797 C13.379,39.608 18.711,32.799 25.958,29.851 C23.706,31.986 18.218,38.174 18.218,47.832 C18.218,48.092 18.429,48.302 18.688,48.302 C18.947,48.302 19.158,48.092 19.158,47.832 C19.158,36.229 27.398,29.823 27.481,29.759 C27.687,29.601 27.727,29.306 27.571,29.1 C27.453,28.948 27.268,28.922 27.093,28.962 L27.093,25.937 L29.778,25.937 C29.778,25.511 30.12,25.167 30.549,25.167 L30.549,16.341 C30.119,16.341 29.778,15.996 29.778,15.577 C29.778,15.151 30.12,14.807 30.549,14.807 L32.268,14.807 L32.268,5.217 L33.23,5.217 L33.23,1.764 C33.232,1.338 33.578,1 34,1 C34.422,1 34.768,1.338 34.768,1.764 L34.768,5.217 L35.73,5.217 L35.73,14.807 L37.449,14.807 C37.875,14.807 38.221,15.15 38.221,15.577 C38.221,15.996 37.876,16.341 37.449,16.341 L37.449,25.167 C37.875,25.167 38.221,25.51 38.221,25.937 L40.906,25.937 L40.906,29.385 L40.8,29.385 C48.676,32.03 54.562,39.148 55.59,47.797 L55.752,47.797 C57.023,47.797 58.059,48.826 58.059,50.099 C58.059,51.372 57.023,52.402 55.752,52.402 L12.244,52.402 C10.975,52.402 9.941,51.372 9.941,50.099 L9.941,50.099 Z M33.293,23.694 C33.293,24.083 33.609,24.399 33.998,24.399 C34.388,24.399 34.703,24.083 34.703,23.694 L34.703,18.992 C34.703,18.603 34.387,18.287 33.998,18.287 C33.609,18.287 33.293,18.603 33.293,18.992 L33.293,23.694 L33.293,23.694 Z M29.503,47.832 C29.503,48.092 29.714,48.302 29.973,48.302 C30.232,48.302 30.443,48.092 30.443,47.832 C30.443,36.023 31.413,29.52 31.422,29.455 C31.461,29.199 31.284,28.958 31.029,28.92 C30.731,28.878 30.531,29.058 30.493,29.314 C30.484,29.379 29.503,35.943 29.503,47.832 L29.503,47.832 Z M23.861,47.832 C23.861,48.092 24.072,48.302 24.331,48.302 C24.59,48.302 24.801,48.092 24.801,47.832 C24.801,36.156 29.41,29.726 29.456,29.663 C29.61,29.454 29.564,29.16 29.355,29.005 C29.151,28.853 28.854,28.897 28.699,29.106 C28.501,29.375 23.861,35.825 23.861,47.832 L23.861,47.832 Z" id="Shape" fill="#002868" transform="translate(33.998504, 46.000000) rotate(180.000000) translate(-33.998504, -46.000000) "></path>
    </g>
</svg>